<svg width="32" height="32" viewBox="0 0 32 32" fill="none" xmlns="http://www.w3.org/2000/svg">
    <path d="M16 5 C16 5 11 4 6 5 C4.5 5.4 4 6.5 4 8 L4 26 C4 26 9 25 16 26 Z" fill="#7F77DD"/>
    <path d="M16 5 C16 5 21 4 26 5 C27.5 5.4 28 6.5 28 8 L28 26 C28 26 23 25 16 26 Z" fill="#3C3489"/>
    <line x1="16" y1="4" x2="16" y2="27" stroke="#534AB7" stroke-width="2" stroke-linecap="round"/>
    <line x1="8" y1="11" x2="14" y2="10.5" stroke="white" stroke-width="1.5" stroke-linecap="round" opacity="0.8"/>
    <line x1="8" y1="14.5" x2="14" y2="14" stroke="white" stroke-width="1.5" stroke-linecap="round" opacity="0.8"/>
    <line x1="8" y1="18" x2="14" y2="17.5" stroke="white" stroke-width="1.5" stroke-linecap="round" opacity="0.8"/>
    <line x1="18" y1="10.5" x2="24" y2="11" stroke="white" stroke-width="1.5" stroke-linecap="round" opacity="0.8"/>
    <line x1="18" y1="14" x2="24" y2="14.5" stroke="white" stroke-width="1.5" stroke-linecap="round" opacity="0.8"/>
    <line x1="18" y1="17.5" x2="24" y2="18" stroke="white" stroke-width="1.5" stroke-linecap="round" opacity="0.8"/>
</svg>